<svg xmlns="http://www.w3.org/2000/svg" xmlns:xlink="http://www.w3.org/1999/xlink" width="500" zoomAndPan="magnify" viewBox="0 0 375 374.999991" height="500" preserveAspectRatio="xMidYMid meet" version="1.0"><defs><clipPath id="397bc4fc1c"><path d="M 35.617188 32.519531 L 339.367188 32.519531 L 339.367188 342.269531 L 35.617188 342.269531 Z M 35.617188 32.519531 " clip-rule="nonzero"/></clipPath></defs><path fill="#55b71c" d="M 263.511719 51.410156 C 262.453125 52.261719 261.605469 53.46875 260.988281 54.996094 C 258.332031 61.570312 251.140625 68.644531 242.226562 73.449219 C 238.984375 75.199219 234.332031 78.101562 229.40625 81.175781 L 225.160156 83.820312 L 223.03125 85.136719 C 217.199219 88.714844 210.117188 92.902344 207.078125 93.511719 C 207 93.527344 206.914062 93.539062 206.816406 93.550781 C 206.375 93.609375 205.761719 93.640625 204.988281 93.640625 C 204.3125 93.640625 203.585938 93.617188 202.890625 93.585938 C 202.316406 93.554688 201.769531 93.519531 201.277344 93.488281 C 200.886719 93.460938 200.535156 93.433594 200.238281 93.40625 C 199.925781 93.382812 199.675781 93.359375 199.523438 93.34375 L 199.457031 93.328125 L 199.328125 93.328125 C 198.949219 93.285156 198.480469 93.242188 197.984375 93.207031 C 197.375 93.15625 196.726562 93.113281 196.125 93.074219 C 194.957031 93 193.988281 92.949219 193.980469 92.945312 C 194.082031 92.945312 194.453125 92.933594 194.453125 92.933594 C 194.96875 92.914062 195.496094 92.871094 196.023438 92.808594 C 196.601562 92.738281 197.105469 92.660156 197.566406 92.5625 C 199.03125 92.25 200.089844 91.785156 200.71875 91.179688 L 200.882812 91.019531 L 200.984375 90.820312 C 201.230469 90.339844 201.464844 89.832031 201.679688 89.304688 L 201.710938 89.230469 C 201.894531 88.765625 202.070312 88.28125 202.226562 87.78125 L 202.320312 87.476562 C 202.441406 87.0625 202.546875 86.660156 202.632812 86.257812 L 202.671875 86.082031 C 202.808594 85.4375 202.90625 84.832031 202.96875 84.226562 C 203.585938 78.449219 206.652344 73.234375 212.917969 67.320312 C 216.019531 64.390625 218.183594 62.777344 219.890625 61.585938 L 218.5 59.242188 C 216.253906 60.363281 214.277344 61.636719 212.621094 63.035156 C 210.042969 65.207031 207.414062 67.910156 204.632812 70.773438 C 201.871094 73.617188 198.738281 76.84375 195.683594 79.371094 L 195.585938 79.453125 L 195.503906 79.550781 C 193.496094 81.960938 192.117188 85.117188 191.316406 87.339844 C 191.09375 87.949219 190.917969 88.488281 190.773438 88.949219 C 190.546875 89.683594 190.410156 90.195312 190.371094 90.347656 L 190.375 90.292969 C 190.4375 89.816406 190.5 89.363281 190.566406 88.929688 C 191.058594 85.722656 191.640625 83.660156 192.164062 82.042969 C 192.164062 82.039062 192.191406 81.96875 192.191406 81.96875 L 192.21875 81.882812 C 192.960938 79.882812 196.671875 69.941406 199.222656 64.0625 L 199.945312 62.398438 L 200.964844 62.519531 L 198.703125 59.867188 C 197.683594 58.671875 196.417969 57.734375 194.933594 57.078125 L 192.128906 55.839844 L 193.082031 58.753906 C 193.09375 58.796875 193.113281 58.835938 193.128906 58.878906 C 193.121094 58.855469 193.105469 58.835938 193.097656 58.808594 L 192.390625 56.71875 L 190.832031 58.285156 C 186.714844 62.421875 179.511719 70.167969 177.226562 75.890625 L 177.199219 75.941406 L 177.179688 75.992188 L 177.117188 76.117188 L 177.113281 76.171875 L 176.789062 76.953125 C 175.921875 79.035156 174.9375 81.398438 173.71875 86.226562 C 173.609375 86.65625 173.5 87.101562 173.390625 87.570312 C 173.304688 87.929688 173.128906 88.6875 173.128906 88.6875 C 173.128906 88.644531 173.152344 88.324219 173.222656 87.746094 C 173.261719 87.398438 173.316406 86.964844 173.394531 86.441406 C 173.671875 84.546875 174.078125 82.433594 174.601562 80.171875 C 175.105469 77.984375 175.175781 76.085938 175.171875 75.152344 L 175.167969 74.472656 L 174.625 74.066406 C 172.425781 72.410156 169.089844 69.960938 165.679688 67.675781 C 164.71875 67.03125 163.707031 66.460938 162.632812 65.855469 C 159.890625 64.304688 157.050781 62.703125 155.332031 59.957031 L 153.1875 56.53125 L 152.8125 60.554688 C 152.457031 64.335938 153.21875 67.5625 155.019531 69.878906 C 159.320312 75.414062 169.585938 84.828125 169.707031 84.925781 C 169.703125 84.925781 169.070312 84.753906 167.851562 84.542969 C 166.042969 84.230469 163.085938 83.855469 159.269531 83.855469 C 157.261719 83.855469 155.210938 83.960938 153.171875 84.167969 C 151.671875 84.320312 150.242188 84.394531 148.929688 84.394531 C 141.320312 84.394531 137.171875 81.804688 133.277344 77.914062 C 132.222656 76.863281 130.828125 75.585938 129.210938 74.109375 C 121.867188 67.402344 115.28125 61.046875 115.347656 57.019531 C 115.40625 53.363281 115.429688 49.144531 115.417969 44.484375 L 112.714844 44.210938 C 111.191406 51.5 110.898438 56.929688 111.832031 60.355469 C 112.9375 64.394531 115.933594 67.882812 119.730469 72.304688 C 121.984375 74.929688 124.535156 77.902344 127.023438 81.429688 C 127.253906 81.757812 127.488281 82.09375 127.726562 82.441406 L 127.804688 82.558594 C 129.378906 84.855469 131.164062 87.460938 133.972656 89.304688 L 134.042969 89.355469 C 134.679688 89.765625 135.304688 90.105469 135.910156 90.371094 L 136.007812 90.417969 C 136.59375 90.671875 137.222656 90.894531 137.867188 91.070312 C 138.191406 91.160156 138.515625 91.242188 138.851562 91.320312 L 138.96875 91.347656 C 140.140625 91.609375 141.398438 91.800781 142.703125 91.914062 L 142.898438 91.929688 L 143.089844 91.890625 C 143.386719 91.832031 144.007812 91.703125 144.867188 91.5 C 145.371094 91.382812 145.957031 91.234375 146.597656 91.066406 C 147.132812 90.925781 147.695312 90.769531 148.285156 90.597656 C 148.980469 90.394531 149.707031 90.167969 150.4375 89.917969 C 151.265625 89.640625 151.996094 89.371094 152.675781 89.097656 C 153.402344 88.804688 154.144531 88.554688 154.949219 88.328125 C 155.429688 88.191406 155.910156 88.066406 156.429688 87.957031 C 157.757812 87.621094 159.183594 87.449219 160.671875 87.449219 C 161.1875 87.449219 161.726562 87.46875 162.292969 87.511719 C 165.160156 87.667969 167.226562 88.320312 167.984375 88.59375 C 168.125 88.640625 168.210938 88.675781 168.242188 88.691406 C 166.394531 88.128906 164.613281 87.753906 162.917969 87.574219 C 162.292969 87.519531 161.652344 87.496094 161.023438 87.496094 C 159.492188 87.496094 157.964844 87.648438 156.421875 87.964844 C 153.054688 88.820312 150.890625 90.527344 149.292969 91.789062 L 141.109375 98.476562 L 142.503906 100.796875 C 151.425781 97.027344 155.355469 96.234375 157.085938 96.234375 C 157.214844 96.234375 157.339844 96.238281 157.460938 96.25 C 159.046875 96.390625 161.34375 96.992188 163.453125 97.574219 L 174.914062 100.769531 C 179.703125 101.964844 183.433594 102.59375 186.652344 102.738281 C 186.671875 102.742188 188.574219 102.921875 191.613281 102.921875 C 196.21875 102.921875 203.09375 102.503906 209.699219 100.53125 C 211.539062 99.980469 213.304688 99.316406 214.945312 98.554688 C 217.585938 97.328125 219.882812 95.851562 221.765625 94.167969 C 222.589844 93.425781 223.421875 92.703125 224.253906 91.988281 C 225.976562 90.515625 227.785156 89.035156 229.625 87.582031 C 230.15625 87.164062 230.683594 86.753906 231.207031 86.351562 C 231.703125 85.964844 232.792969 85.136719 232.792969 85.136719 C 237.410156 81.644531 241.839844 78.578125 245.398438 76.117188 C 248.34375 74.078125 250.890625 72.316406 252.765625 70.863281 C 257.78125 66.972656 263.980469 61.226562 265.039062 55.945312 L 265.273438 54.742188 C 265.425781 53.964844 265.554688 53.339844 265.691406 52.832031 L 266.792969 48.769531 Z M 178.378906 89.246094 L 178.292969 89.488281 L 178.65625 87.945312 L 178.296875 89.476562 C 178.324219 89.359375 178.363281 89.273438 178.378906 89.246094 Z M 180.382812 82.351562 C 182.546875 73.753906 188.167969 66.933594 188.402344 66.648438 C 188.402344 66.648438 188.402344 66.648438 188.40625 66.648438 L 188.402344 66.648438 C 188.34375 66.71875 182.542969 73.78125 180.382812 82.351562 Z M 194.230469 60.675781 C 194.222656 60.667969 194.214844 60.65625 194.210938 60.648438 C 194.222656 60.660156 194.230469 60.675781 194.242188 60.6875 C 194.238281 60.683594 194.234375 60.679688 194.230469 60.675781 Z M 193.585938 59.851562 C 193.578125 59.84375 193.570312 59.835938 193.566406 59.824219 C 193.570312 59.835938 193.578125 59.84375 193.585938 59.851562 Z M 193.585938 59.851562 " fill-opacity="1" fill-rule="nonzero"/><path fill="#f14434" d="M 203.480469 93.609375 L 202.042969 93.554688 L 202.171875 92.121094 C 202.292969 90.800781 202.828125 89.175781 203.765625 87.292969 L 204.074219 86.667969 L 204.761719 86.550781 C 209.40625 85.753906 213.941406 85.242188 218.234375 85.035156 L 219 87.574219 C 212.789062 91.273438 209.113281 93.105469 207.078125 93.511719 C 206.636719 93.601562 206.003906 93.644531 205.089844 93.644531 C 204.597656 93.644531 204.046875 93.628906 203.480469 93.609375 Z M 88.5 142.960938 C 88.3125 146.703125 86.539062 154.53125 83.808594 156.15625 L 82.832031 156.738281 L 82.082031 155.886719 C 71.589844 144.007812 61.699219 129.761719 52.6875 113.546875 C 49.894531 108.519531 40.550781 90.015625 37.988281 84.429688 C 37.1875 82.683594 37.023438 81.394531 37.503906 80.605469 C 37.761719 80.164062 38.238281 79.855469 38.953125 79.683594 L 40.03125 79.417969 L 40.355469 80.097656 C 40.273438 79.925781 40.03125 79.40625 40.03125 79.40625 L 40.023438 79.386719 C 39.597656 78.421875 39.753906 77.097656 41.089844 76.28125 C 41.503906 76.023438 41.9375 75.894531 42.375 75.894531 C 42.566406 75.894531 42.757812 75.917969 42.941406 75.96875 L 43.863281 76.21875 L 43.914062 76.8125 L 43.902344 76.574219 L 44.320312 76.140625 C 44.777344 75.671875 45.496094 75.109375 46.324219 75.109375 L 46.410156 75.109375 L 46.457031 75.113281 C 47.246094 75.171875 47.96875 75.746094 48.605469 76.828125 C 50.371094 79.8125 53.421875 85.980469 54.3125 87.800781 L 54.40625 87.988281 L 54.375 87.851562 L 54.375 87.832031 C 54.226562 87.15625 53.890625 85.078125 55.117188 83.945312 L 56.574219 82.601562 L 57.316406 84.441406 C 57.773438 85.585938 58.132812 87.933594 58.554688 90.886719 C 59.234375 95.664062 60.082031 101.609375 62.300781 105.929688 C 66.515625 114.152344 74.421875 127.078125 88.136719 141.96875 L 88.527344 142.386719 Z M 54.457031 88.496094 C 54.476562 88.734375 54.492188 88.976562 54.488281 89.203125 C 54.496094 88.976562 54.476562 88.734375 54.457031 88.496094 Z M 54.421875 88.042969 L 54.429688 88.136719 C 54.429688 88.113281 54.429688 88.089844 54.425781 88.066406 Z M 54.414062 90.140625 C 54.445312 89.933594 54.453125 89.71875 54.46875 89.503906 C 54.457031 89.71875 54.445312 89.933594 54.414062 90.140625 Z M 54.246094 91.027344 C 54.28125 90.875 54.304688 90.71875 54.335938 90.5625 C 54.304688 90.71875 54.28125 90.875 54.246094 91.027344 Z M 53.546875 98.367188 C 52.742188 96.035156 53.285156 94.269531 53.8125 92.5625 C 53.820312 92.539062 53.828125 92.515625 53.832031 92.492188 C 53.828125 92.515625 53.820312 92.535156 53.8125 92.558594 C 53.261719 94.34375 52.742188 96.035156 53.546875 98.367188 Z M 44.667969 79.539062 C 45.234375 80.839844 46.082031 82.40625 47.050781 84.191406 C 47.503906 85.023438 47.980469 85.90625 48.472656 86.835938 C 47.984375 85.910156 47.507812 85.03125 47.058594 84.199219 C 46.039062 82.320312 45.210938 80.773438 44.667969 79.539062 Z M 41.050781 81.523438 C 42.398438 84.246094 44.207031 87.636719 44.703125 88.5625 C 44.242188 87.703125 42.410156 84.261719 41.050781 81.523438 Z M 337.34375 70.25 C 335.601562 76.128906 328.960938 95.761719 326.898438 101.140625 C 314.890625 132.488281 301.566406 151.246094 294.695312 159.640625 C 294.261719 160.171875 293.839844 160.675781 293.457031 161.125 C 293.039062 161.621094 292.660156 162.054688 292.308594 162.453125 L 289.953125 164.976562 L 289.9375 165.03125 C 290.21875 165.949219 294.800781 181.03125 288.378906 202.582031 L 288.382812 202.816406 L 288.3125 203.035156 C 279.929688 227.503906 261.207031 247.089844 235.589844 258.1875 L 233.167969 259.234375 L 233.707031 256.652344 L 233.433594 257.03125 C 233.085938 257.507812 232.464844 258.375 231.667969 259.542969 C 231.277344 260.113281 230.847656 260.753906 230.390625 261.457031 C 230.011719 262.039062 229.613281 262.65625 229.199219 263.3125 C 224.769531 270.375 217.664062 283.417969 219.828125 291.472656 C 221.472656 297.578125 236.949219 306 250.886719 311.84375 L 252.269531 312.425781 L 238.117188 338.957031 L 236.824219 337.890625 C 228.992188 331.429688 234.796875 320.222656 235.046875 319.75 C 233.972656 319.421875 208.722656 311.625 203.0625 296.96875 C 200.585938 290.554688 202.042969 280.496094 207.390625 267.066406 L 207.722656 266.238281 L 208.671875 264.007812 C 209.128906 262.949219 209.640625 261.765625 210.066406 260.804688 C 210.398438 260.078125 210.71875 259.382812 211.027344 258.730469 C 212.179688 256.378906 214.542969 251.828125 214.960938 251.027344 L 214.960938 251.019531 C 214.382812 251.996094 209.699219 259.835938 205.203125 263.195312 C 201.234375 266.164062 196.808594 267.957031 184.816406 268.949219 C 183.632812 268.984375 182.550781 269 181.496094 269 C 178.417969 269 175.429688 268.859375 172.609375 268.578125 L 172.222656 268.542969 C 171.839844 268.503906 171.453125 268.464844 171.078125 268.421875 L 170.988281 268.410156 C 170.617188 268.363281 170.257812 268.3125 169.898438 268.261719 L 169.566406 268.214844 C 164.128906 267.449219 159.183594 266.148438 154.375 264.238281 C 153.910156 264.050781 153.492188 263.882812 153.078125 263.707031 L 152.964844 263.65625 C 152.617188 263.511719 152.199219 263.328125 151.78125 263.140625 C 146.566406 260.804688 141.964844 257.984375 137.515625 255.253906 L 135.953125 254.296875 C 92.546875 227.765625 85.171875 190.652344 86.628906 164.195312 L 86.640625 164.011719 C 86.671875 163.449219 86.710938 162.875 86.75 162.304688 L 86.761719 162.164062 C 86.800781 161.597656 86.847656 161.019531 86.898438 160.445312 L 88.269531 160.464844 L 86.90625 160.347656 C 87.3125 155.734375 87.992188 151.03125 88.929688 146.359375 L 89.347656 144.371094 C 89.445312 143.914062 89.699219 142.78125 89.699219 142.78125 C 92.109375 132.253906 95.34375 123.742188 97.632812 118.453125 C 102.632812 106.894531 111.339844 98.386719 123.511719 93.175781 L 123.675781 93.105469 L 123.851562 93.078125 C 124.214844 92.921875 127.492188 91.558594 133.070312 91.558594 C 135.386719 91.558594 137.792969 91.796875 140.21875 92.273438 C 141.316406 92.484375 142.5 92.59375 143.730469 92.59375 C 143.976562 92.59375 144.214844 92.589844 144.449219 92.582031 L 148.488281 92.449219 L 145.359375 95.007812 C 142.085938 97.679688 134.320312 104.023438 132.859375 105.179688 C 133.042969 105.089844 151.230469 96.230469 156.976562 96.230469 C 157.148438 96.230469 157.3125 96.238281 157.46875 96.25 C 158.726562 96.363281 160.5 96.753906 163.394531 97.558594 C 163.613281 97.628906 167.6875 98.9375 168.480469 100.878906 C 168.683594 101.371094 168.652344 101.871094 168.394531 102.355469 C 166.988281 104.992188 166.210938 109.679688 166.128906 110.207031 L 166.113281 110.300781 C 167.363281 106.46875 169.253906 103.589844 171.519531 102.152344 C 172.664062 101.425781 173.910156 101.058594 175.210938 101.058594 C 175.828125 101.058594 176.46875 101.140625 177.117188 101.300781 L 177.175781 101.308594 C 180.910156 102.152344 183.980469 102.613281 186.621094 102.738281 C 187.042969 102.777344 188.957031 102.941406 191.851562 102.941406 C 196.617188 102.941406 203.71875 102.484375 210.484375 100.308594 C 212.578125 99.699219 214.296875 99.125 215.777344 98.546875 L 215.890625 98.503906 L 216.007812 98.480469 C 216.09375 98.464844 216.34375 98.425781 216.34375 98.425781 C 217.199219 98.296875 218.082031 98.230469 219 98.230469 C 221.886719 98.230469 225.015625 98.851562 228.054688 100.027344 C 228.3125 100.140625 228.511719 100.226562 228.722656 100.3125 L 228.839844 100.339844 L 228.921875 100.371094 C 228.777344 100.308594 228.628906 100.246094 228.480469 100.1875 C 228.136719 100.019531 227.742188 99.839844 227.207031 99.625 L 227.101562 99.578125 C 224.292969 98.1875 223.355469 96.984375 223.0625 96.222656 C 222.988281 96.023438 222.960938 95.867188 222.949219 95.769531 L 222.832031 94.890625 L 223.585938 94.425781 C 224.148438 94.078125 224.734375 93.71875 225.390625 93.332031 C 228.929688 91.253906 231.886719 89.855469 234.3125 88.757812 C 234.476562 88.695312 236.679688 87.859375 240.242188 87.859375 C 242.363281 87.859375 244.542969 88.152344 246.71875 88.726562 L 246.824219 88.757812 C 252.167969 90.640625 257.152344 93.242188 261.636719 96.488281 C 275.105469 106.238281 284.445312 121.632812 289.402344 142.238281 L 289.554688 142.871094 C 289.683594 142.699219 289.8125 142.53125 289.941406 142.363281 C 305.863281 121.441406 313.296875 103.679688 316.308594 94.957031 C 317.894531 90.367188 317.894531 84.363281 317.894531 79.535156 C 317.894531 76.550781 317.921875 74.175781 318.214844 72.976562 L 318.6875 71.054688 L 320.320312 72.179688 C 321.683594 73.121094 321.652344 75.246094 321.601562 75.921875 L 321.585938 76.171875 C 321.589844 77.898438 322.21875 79.230469 322.824219 80.523438 C 323.59375 82.152344 324.386719 83.835938 323.898438 86.28125 C 324.386719 83.835938 323.628906 82.226562 322.828125 80.523438 C 322.242188 79.277344 321.636719 77.992188 321.597656 76.3125 L 321.59375 76.082031 L 321.664062 75.859375 C 322.109375 74.496094 324.390625 67.53125 325.761719 64.214844 C 326.25 63.035156 326.898438 62.359375 327.691406 62.207031 C 327.796875 62.183594 327.921875 62.171875 328.050781 62.171875 C 328.792969 62.171875 329.484375 62.597656 329.933594 62.953125 L 330.394531 63.3125 L 330.371094 62.957031 L 331.238281 62.574219 C 331.515625 62.453125 331.8125 62.394531 332.117188 62.394531 C 332.449219 62.394531 332.789062 62.46875 333.128906 62.613281 C 334.382812 63.15625 334.957031 64.285156 334.628906 65.515625 L 334.5625 65.746094 L 334.550781 65.773438 C 334.5 65.941406 334.445312 66.121094 334.386719 66.308594 L 334.621094 65.570312 L 335.730469 65.683594 C 336.460938 65.757812 336.976562 65.996094 337.304688 66.414062 C 337.871094 67.121094 337.890625 68.417969 337.34375 70.25 Z M 329.804688 67.160156 C 329.4375 68.308594 328.9375 69.679688 328.34375 71.277344 C 328.296875 71.398438 328.253906 71.519531 328.207031 71.640625 C 328.253906 71.519531 328.300781 71.398438 328.34375 71.277344 C 328.914062 69.742188 329.429688 68.355469 329.804688 67.160156 Z M 215.445312 166.980469 L 217.082031 167.292969 C 217.4375 167.363281 217.8125 167.398438 218.191406 167.398438 C 218.515625 167.398438 218.867188 167.371094 219.230469 167.320312 C 218.882812 167.367188 218.546875 167.394531 218.226562 167.394531 C 216.492188 167.394531 215.230469 166.703125 214.398438 165.789062 L 215.21875 166.820312 L 213.777344 167.597656 C 208.855469 170.230469 191.886719 179.15625 180.085938 183.363281 C 179.628906 183.527344 179.179688 183.679688 178.730469 183.824219 C 178.730469 183.824219 177.652344 184.160156 177.410156 184.234375 C 177.410156 184.234375 176.351562 184.53125 176.128906 184.589844 C 175.898438 184.652344 175.667969 184.710938 175.441406 184.765625 L 174.902344 184.898438 C 174.640625 184.960938 174.386719 185.015625 174.140625 185.070312 L 173.738281 185.15625 C 173.4375 185.21875 173.152344 185.277344 172.867188 185.332031 L 172.710938 185.363281 C 170.042969 185.851562 167.441406 186.09375 164.910156 186.097656 C 159.578125 186.097656 156.332031 185.015625 156.195312 184.972656 L 156.183594 184.96875 C 156.820312 185.785156 169.882812 202.273438 186.292969 205.175781 L 186.5 203.746094 C 187.660156 194.898438 195.914062 189.777344 210.371094 188.929688 L 210.410156 188.925781 L 212.5 188.921875 C 215.230469 180.835938 215.480469 172.082031 215.457031 168.644531 Z M 205.507812 200.546875 C 208.632812 197.671875 210.78125 193.753906 212.261719 189.617188 L 211.800781 190.789062 C 210.609375 193.820312 209.128906 196.425781 207.390625 198.53125 C 207.09375 198.890625 206.792969 199.230469 206.484375 199.558594 L 206.390625 199.660156 C 206.0625 200.007812 205.714844 200.351562 205.355469 200.675781 L 205.273438 200.75 C 204.953125 201.035156 204.621094 201.3125 204.273438 201.582031 L 204.183594 201.652344 C 204.296875 201.566406 204.40625 201.488281 204.515625 201.402344 C 204.714844 201.242188 204.902344 201.085938 205.089844 200.925781 C 205.230469 200.800781 205.367188 200.675781 205.507812 200.546875 Z M 200.558594 203.78125 L 200.472656 203.816406 C 200.488281 203.8125 200.558594 203.78125 200.558594 203.78125 Z M 194.28125 216.441406 C 192.914062 216.441406 191.601562 216.261719 190.359375 215.898438 C 191.609375 216.265625 192.925781 216.449219 194.289062 216.449219 C 196.863281 216.449219 199.441406 215.785156 201.371094 214.632812 C 199.449219 215.78125 196.863281 216.441406 194.28125 216.441406 Z M 202.257812 202.941406 C 202.519531 202.792969 202.773438 202.625 203.027344 202.460938 C 202.691406 202.679688 202.34375 202.890625 201.992188 203.082031 Z M 203.128906 202.398438 C 203.222656 202.335938 203.324219 202.285156 203.417969 202.21875 C 203.511719 202.15625 203.597656 202.089844 203.6875 202.023438 L 203.867188 201.894531 C 203.96875 201.816406 204.074219 201.734375 204.179688 201.65625 C 203.859375 201.902344 203.5 202.15625 203.128906 202.398438 Z M 187.667969 205.355469 L 186.351562 205.183594 C 187.917969 205.457031 189.511719 205.617188 191.132812 205.617188 C 193.164062 205.617188 195.195312 205.371094 197.167969 204.890625 C 197.230469 204.875 197.292969 204.855469 197.351562 204.839844 C 197.234375 204.867188 197.117188 204.894531 197.117188 204.894531 C 196.757812 204.980469 196.398438 205.0625 196.042969 205.128906 L 195.527344 205.21875 C 195.167969 205.28125 194.8125 205.335938 194.457031 205.382812 L 194 205.4375 C 193.59375 205.480469 193.191406 205.511719 192.789062 205.535156 L 192.5 205.554688 C 192.058594 205.578125 191.613281 205.585938 191.167969 205.585938 C 190 205.585938 188.824219 205.507812 187.667969 205.355469 Z M 206.84375 157.988281 L 206.921875 156.6875 C 206.988281 155.546875 206.746094 154.386719 206.21875 153.328125 C 205.445312 151.78125 202.984375 149.328125 199.679688 149.328125 C 199.488281 149.328125 199.292969 149.335938 199.09375 149.351562 C 197.957031 149.453125 192.28125 150.265625 192.457031 156.457031 C 192.515625 158.558594 193.253906 160.230469 194.648438 161.429688 L 195.761719 162.386719 C 195.761719 162.386719 194.714844 163.441406 194.707031 163.449219 C 196.5 161.636719 200.78125 158.046875 206.617188 158.046875 C 207.371094 158.046875 208.132812 158.109375 208.890625 158.230469 C 208.640625 158.1875 208.390625 158.15625 208.140625 158.128906 Z M 193.75 126.769531 C 193.75 126.769531 193.40625 126.773438 193.296875 126.78125 C 193.398438 126.773438 193.75 126.769531 193.75 126.769531 C 199.234375 126.769531 203.988281 131.753906 204.164062 131.941406 C 203.988281 131.753906 199.246094 126.769531 193.75 126.769531 Z M 156.648438 135.132812 C 155.503906 134.785156 154.398438 134.609375 153.351562 134.609375 C 152.050781 134.609375 150.804688 134.882812 149.644531 135.425781 C 150.796875 134.886719 152.050781 134.613281 153.367188 134.613281 C 154.417969 134.613281 155.515625 134.789062 156.648438 135.132812 Z M 148.667969 172.425781 C 151.429688 169.960938 154.976562 168.660156 158.96875 168.660156 C 160.710938 168.660156 162.222656 168.902344 163.3125 169.148438 L 162.3125 168.902344 L 162.765625 167.507812 C 163.332031 165.757812 163.089844 163.945312 162.046875 162.117188 C 160.71875 159.800781 158.820312 158.625 156.40625 158.625 C 154.652344 158.625 153.214844 159.246094 152.675781 159.511719 C 149.625 161.023438 148.496094 164.574219 148.667969 166.613281 C 148.769531 167.789062 149.167969 168.90625 149.820312 169.847656 L 150.5625 170.917969 L 149.53125 171.710938 C 149.234375 171.9375 148.945312 172.175781 148.667969 172.425781 Z M 128.375 112.203125 C 128.375 112.203125 128.300781 112.285156 128.183594 112.433594 C 128.292969 112.296875 128.363281 112.21875 128.375 112.207031 L 128.378906 112.203125 C 128.378906 112.203125 128.375 112.203125 128.375 112.203125 Z M 162.960938 293.421875 C 161.734375 288.847656 163.40625 281.859375 167.800781 273.21875 L 168.03125 272.761719 L 167.90625 272.265625 C 167.132812 269.1875 162.8125 267.53125 157.8125 265.609375 C 156.929688 265.273438 156.027344 264.921875 155.097656 264.550781 C 154.828125 264.449219 154.5625 264.34375 154.296875 264.234375 L 153.050781 263.734375 L 152.527344 264.96875 C 145.777344 280.898438 143.648438 292.320312 146.195312 298.917969 C 151.855469 313.570312 177.105469 321.367188 178.183594 321.695312 C 177.933594 322.167969 172.125 333.378906 179.960938 339.839844 L 181.25 340.902344 L 195.402344 314.371094 L 194.019531 313.792969 C 180.082031 307.949219 164.605469 299.527344 162.960938 293.421875 Z M 162.960938 293.421875 " fill-opacity="1" fill-rule="nonzero"/><path fill="#ffffff" d="M 150.027344 172.90625 C 152.605469 178.0625 151.765625 185.183594 144.335938 189.195312 C 136.90625 193.203125 125.375 189.933594 125.058594 178.667969 C 124.785156 169.023438 132.6875 166.074219 137.097656 165.6875 C 143.429688 165.128906 148.371094 169.597656 150.027344 172.90625 Z M 220.753906 155.03125 C 216.34375 155.421875 208.441406 158.371094 208.710938 168.015625 C 209.03125 179.277344 220.558594 182.546875 227.988281 178.539062 C 235.417969 174.53125 236.257812 167.410156 233.679688 162.25 C 232.027344 158.941406 227.082031 154.476562 220.753906 155.03125 Z M 220.753906 155.03125 " fill-opacity="0.3" fill-rule="nonzero"/><path fill="#ad2821" d="M 182.457031 262.039062 C 181.804688 262.039062 181.152344 262.03125 180.503906 262.011719 C 179.75 261.992188 179.15625 261.363281 179.175781 260.609375 C 179.195312 259.867188 179.804688 259.28125 180.542969 259.28125 C 180.554688 259.28125 180.566406 259.28125 180.578125 259.28125 C 184.226562 259.378906 187.957031 259.1875 191.667969 258.703125 C 192.410156 258.597656 193.101562 259.136719 193.199219 259.882812 C 193.296875 260.632812 192.769531 261.316406 192.019531 261.414062 C 188.828125 261.832031 185.621094 262.039062 182.457031 262.039062 Z M 171.636719 259.839844 C 171.769531 259.097656 171.273438 258.386719 170.53125 258.257812 C 155.21875 255.539062 140.429688 247.496094 126.566406 234.351562 C 126.019531 233.832031 125.15625 233.855469 124.636719 234.402344 C 124.113281 234.953125 124.136719 235.816406 124.683594 236.335938 C 138.941406 249.851562 154.203125 258.132812 170.050781 260.945312 C 170.132812 260.960938 170.214844 260.96875 170.292969 260.96875 C 170.945312 260.96875 171.519531 260.503906 171.636719 259.839844 Z M 171.636719 259.839844 " fill-opacity="1" fill-rule="nonzero"/><path fill="#ffffff" d="M 215.449219 166.699219 L 215.449219 168.984375 C 215.445312 170.453125 215.390625 172.769531 215.148438 175.480469 L 215.089844 176.132812 L 214.546875 176.496094 C 205.859375 182.175781 186.460938 192.882812 174.992188 192.882812 C 173.738281 192.882812 172.597656 192.75 171.597656 192.488281 C 168.40625 191.660156 165.902344 189.886719 164.355469 188.539062 L 161.140625 186.140625 L 165.203125 186.109375 C 168.636719 186.078125 172.175781 185.605469 175.726562 184.695312 L 175.992188 184.625 C 176.527344 184.484375 177.066406 184.332031 177.613281 184.167969 L 178.105469 184.019531 C 178.757812 183.820312 179.414062 183.601562 180.089844 183.363281 C 189.785156 179.90625 203.007812 173.242188 210.027344 169.578125 C 211.390625 168.867188 212.546875 168.253906 213.433594 167.78125 Z M 215.449219 166.699219 " fill-opacity="1" fill-rule="nonzero"/><g clip-path="url(#397bc4fc1c)"><path fill="#171017" d="M 143.808594 145.539062 C 143.652344 146.15625 143.097656 146.570312 142.484375 146.570312 C 142.375 146.570312 142.261719 146.554688 142.148438 146.527344 C 141.417969 146.339844 140.972656 145.597656 141.160156 144.867188 C 141.238281 144.558594 143.132812 137.296875 148.628906 134.402344 C 151.378906 132.957031 154.496094 132.859375 157.894531 134.113281 C 158.601562 134.375 158.964844 135.160156 158.703125 135.867188 C 158.441406 136.578125 157.65625 136.941406 156.945312 136.675781 C 154.308594 135.703125 151.9375 135.753906 149.902344 136.824219 C 145.472656 139.152344 143.828125 145.472656 143.808594 145.539062 Z M 187.386719 131.378906 C 189.234375 129.265625 191.332031 128.171875 193.625 128.136719 C 193.667969 128.136719 193.710938 128.136719 193.75 128.136719 C 198.6875 128.136719 203.121094 132.824219 203.164062 132.875 C 203.433594 133.164062 203.800781 133.308594 204.164062 133.308594 C 204.5 133.308594 204.832031 133.1875 205.09375 132.945312 C 205.648438 132.433594 205.683594 131.566406 205.167969 131.015625 C 204.953125 130.78125 199.890625 125.402344 193.75 125.402344 C 193.699219 125.402344 193.648438 125.402344 193.597656 125.402344 C 190.492188 125.449219 187.707031 126.855469 185.324219 129.578125 C 184.828125 130.148438 184.886719 131.011719 185.457031 131.507812 C 186.027344 132.003906 186.890625 131.945312 187.386719 131.378906 Z M 198.976562 147.992188 C 196.085938 148.246094 190.910156 150.175781 191.089844 156.496094 C 191.164062 159.175781 192.222656 161.148438 193.757812 162.46875 C 193.136719 163.09375 192.777344 163.539062 192.71875 163.617188 C 192.25 164.207031 192.351562 165.066406 192.941406 165.53125 C 193.195312 165.730469 193.492188 165.828125 193.789062 165.828125 C 194.195312 165.828125 194.59375 165.648438 194.863281 165.3125 C 195.109375 165.003906 200.960938 157.8125 209.535156 159.742188 C 210.273438 159.910156 211.003906 159.449219 211.171875 158.710938 C 211.339844 157.976562 210.875 157.242188 210.140625 157.078125 C 209.507812 156.933594 208.890625 156.835938 208.285156 156.769531 C 208.371094 155.355469 208.058594 153.953125 207.441406 152.71875 C 206.359375 150.550781 203.121094 147.625 198.976562 147.992188 Z M 164.605469 170.929688 C 165.308594 171.195312 166.097656 170.832031 166.359375 170.125 C 166.621094 169.414062 166.261719 168.628906 165.554688 168.367188 C 165.460938 168.332031 164.925781 168.140625 164.066406 167.929688 C 164.691406 166.003906 164.566406 163.769531 163.234375 161.441406 C 160.09375 155.953125 154.667969 157 152.066406 158.289062 C 148.339844 160.132812 147.101562 164.316406 147.304688 166.730469 C 147.421875 168.105469 147.886719 169.464844 148.695312 170.628906 C 148.214844 171 147.738281 171.40625 147.273438 171.855469 C 146.730469 172.382812 146.71875 173.246094 147.246094 173.789062 C 147.511719 174.066406 147.871094 174.203125 148.226562 174.203125 C 148.570312 174.203125 148.914062 174.074219 149.179688 173.816406 C 155.492188 167.699219 164.238281 170.796875 164.605469 170.929688 Z M 338.65625 70.636719 C 336.90625 76.535156 330.246094 96.234375 328.175781 101.628906 C 314.871094 136.355469 300.296875 155.421875 294.011719 162.625 C 294.238281 165.289062 294.382812 167.792969 294.460938 170.074219 C 294.867188 181.414062 293.253906 192.496094 289.675781 203.023438 C 289.640625 203.117188 289.589844 203.195312 289.539062 203.273438 C 285.96875 213.667969 280.53125 223.394531 273.386719 231.957031 C 262.683594 244.777344 248.710938 254.609375 232.339844 261.007812 C 227.820312 267.765625 218.863281 282.613281 221.148438 291.117188 C 222.9375 297.769531 244.59375 307.832031 252.785156 311.148438 C 253.144531 311.296875 253.425781 311.585938 253.558594 311.949219 C 253.691406 312.316406 253.664062 312.71875 253.480469 313.058594 L 239.375 339.503906 C 239.195312 339.835938 238.886719 340.082031 238.515625 340.179688 C 238.402344 340.210938 238.285156 340.226562 238.167969 340.226562 C 237.910156 340.226562 237.65625 340.152344 237.4375 340.015625 C 229.511719 335.015625 230.898438 325.828125 233.144531 320.570312 C 227.34375 318.613281 206.972656 310.890625 201.785156 297.460938 C 198.800781 289.734375 201.6875 278.148438 205.386719 268.382812 C 203.226562 268.679688 200.777344 268.957031 198.332031 269.203125 C 192.003906 270.023438 186.378906 270.394531 181.332031 270.394531 C 177.667969 270.394531 174.3125 270.195312 171.195312 269.839844 C 170.585938 270.902344 169.972656 272.015625 169.375 273.15625 C 169.328125 273.246094 169.285156 273.332031 169.238281 273.421875 C 169.234375 273.4375 169.222656 273.445312 169.214844 273.457031 C 165.746094 280.148438 162.871094 287.816406 164.28125 293.066406 C 166.070312 299.71875 187.726562 309.78125 195.921875 313.097656 C 196.277344 313.242188 196.558594 313.535156 196.691406 313.898438 C 196.824219 314.261719 196.796875 314.664062 196.613281 315.007812 L 182.507812 341.449219 C 182.328125 341.785156 182.019531 342.03125 181.652344 342.128906 C 181.535156 342.160156 181.417969 342.171875 181.300781 342.171875 C 181.042969 342.171875 180.792969 342.101562 180.570312 341.960938 C 172.648438 336.960938 174.03125 327.773438 176.277344 322.515625 C 170.476562 320.558594 150.105469 312.835938 144.921875 299.410156 C 141.636719 290.910156 146.296875 276.160156 151.25 264.425781 C 146.035156 262.082031 141.453125 259.273438 136.800781 256.417969 L 135.242188 255.464844 C 109.03125 239.441406 92.859375 217.773438 87.179688 191.054688 C 85.167969 181.582031 84.5625 171.664062 85.300781 161.511719 C 76.628906 152.410156 64.300781 137.257812 51.492188 114.210938 C 48.6875 109.160156 39.316406 90.597656 36.746094 85 C 35.734375 82.796875 35.597656 81.136719 36.320312 79.917969 C 36.839844 79.046875 37.679688 78.617188 38.453125 78.394531 C 38.449219 77.265625 38.929688 76 40.371094 75.117188 C 41.675781 74.316406 42.867188 74.425781 43.75 74.804688 C 44.386719 74.257812 45.316406 73.695312 46.460938 73.746094 C 47.761719 73.800781 48.882812 74.601562 49.785156 76.132812 C 50.878906 77.988281 52.449219 81.019531 53.6875 83.476562 C 54.191406 82.785156 54.90625 82.304688 55.78125 82.078125 C 56.351562 81.933594 56.9375 82.03125 57.429688 82.359375 C 58.792969 83.269531 59.199219 85.707031 59.910156 90.695312 C 60.574219 95.375 61.40625 101.195312 63.515625 105.304688 C 67.332031 112.75 75.050781 125.644531 88.6875 140.539062 C 90.550781 133.027344 93.109375 125.460938 96.375 117.910156 C 101.472656 106.132812 110.503906 97.410156 122.996094 92.011719 C 123.070312 91.957031 123.148438 91.90625 123.234375 91.863281 C 125.410156 90.789062 128.3125 89.828125 131.339844 89.011719 C 129.363281 87.246094 127.933594 85.164062 126.675781 83.328125 C 126.414062 82.949219 126.15625 82.574219 125.90625 82.214844 C 123.457031 78.746094 120.925781 75.796875 118.691406 73.195312 C 114.941406 68.824219 111.699219 65.046875 110.515625 60.714844 C 108.171875 52.148438 113.796875 34.378906 114.035156 33.628906 C 114.238281 32.988281 114.878906 32.589844 115.539062 32.691406 C 116.203125 32.789062 116.695312 33.351562 116.707031 34.023438 C 116.707031 34.144531 116.890625 46.429688 116.714844 57.042969 C 116.652344 60.789062 125.089844 68.496094 130.132812 73.101562 C 131.765625 74.59375 133.175781 75.878906 134.246094 76.949219 C 138.707031 81.410156 143.210938 83.796875 153.035156 82.808594 C 158.222656 82.28125 162.484375 82.480469 165.441406 82.8125 C 162.011719 79.539062 156.777344 74.371094 153.9375 70.71875 C 149.179688 64.59375 152.40625 55.617188 152.542969 55.238281 C 152.761719 54.652344 153.359375 54.285156 153.972656 54.351562 C 154.59375 54.417969 155.09375 54.898438 155.183594 55.519531 C 155.886719 60.476562 159.488281 62.511719 163.304688 64.664062 C 164.355469 65.257812 165.445312 65.871094 166.445312 66.542969 C 170.167969 69.039062 173.800781 71.726562 175.976562 73.371094 C 175.976562 73.371094 175.980469 73.375 175.984375 73.375 L 176.167969 73.515625 C 176.324219 73.636719 176.496094 73.765625 176.636719 73.871094 C 180.566406 66.058594 191.355469 55.832031 191.847656 55.371094 C 191.855469 55.363281 191.867188 55.359375 191.878906 55.347656 C 191.9375 55.292969 192.003906 55.246094 192.074219 55.207031 C 192.09375 55.191406 192.113281 55.175781 192.132812 55.167969 C 192.222656 55.117188 192.3125 55.082031 192.40625 55.054688 C 192.4375 55.046875 192.472656 55.042969 192.503906 55.035156 C 192.574219 55.019531 192.640625 55.007812 192.710938 55.007812 C 192.75 55.003906 192.789062 55.003906 192.824219 55.007812 C 192.863281 55.007812 192.898438 55.003906 192.9375 55.007812 C 192.972656 55.011719 193.003906 55.023438 193.039062 55.027344 C 193.054688 55.03125 193.074219 55.03125 193.09375 55.035156 C 193.128906 55.042969 193.160156 55.054688 193.191406 55.0625 C 193.199219 55.0625 193.207031 55.066406 193.210938 55.066406 C 199.410156 56.558594 201.3125 61.390625 201.390625 61.597656 C 201.394531 61.605469 201.394531 61.617188 201.398438 61.628906 C 201.410156 61.664062 201.417969 61.703125 201.429688 61.738281 C 201.441406 61.792969 201.457031 61.84375 201.464844 61.898438 C 201.464844 61.90625 201.46875 61.914062 201.46875 61.921875 C 201.472656 61.953125 201.46875 61.980469 201.46875 62.011719 C 201.472656 62.0625 201.476562 62.117188 201.472656 62.167969 C 201.46875 62.210938 201.460938 62.253906 201.453125 62.300781 C 201.449219 62.34375 201.441406 62.386719 201.429688 62.429688 C 201.417969 62.476562 201.398438 62.523438 201.382812 62.566406 C 201.371094 62.597656 201.363281 62.628906 201.351562 62.660156 C 199.648438 66.285156 196.871094 73.445312 195.109375 78.082031 C 197.957031 75.6875 200.835938 72.71875 203.652344 69.820312 C 206.460938 66.929688 209.109375 64.199219 211.738281 61.988281 C 218.367188 56.40625 227.351562 54.621094 227.730469 54.546875 C 228.34375 54.429688 228.972656 54.75 229.234375 55.324219 C 229.496094 55.898438 229.332031 56.574219 228.835938 56.964844 C 226.449219 58.839844 224.628906 60.050781 222.871094 61.21875 C 220.128906 63.050781 217.757812 64.628906 213.855469 68.3125 C 207.847656 73.988281 204.910156 78.941406 204.328125 84.371094 C 204.296875 84.675781 204.25 84.96875 204.207031 85.261719 C 210.789062 84.113281 217.054688 83.542969 222.988281 83.554688 C 224.890625 82.382812 226.8125 81.183594 228.683594 80.015625 C 233.628906 76.929688 238.300781 74.011719 241.574219 72.246094 C 250.226562 67.585938 257.179688 60.777344 259.71875 54.484375 C 262.160156 48.445312 267.324219 48.167969 269.710938 48.863281 C 270.296875 49.035156 270.699219 49.574219 270.695312 50.1875 C 270.6875 50.796875 270.277344 51.332031 269.6875 51.492188 C 268.382812 51.851562 267.574219 52.089844 267.332031 52.367188 C 267.066406 52.671875 266.886719 53.597656 266.617188 55 C 266.546875 55.367188 266.46875 55.773438 266.378906 56.21875 C 265.242188 61.90625 258.804688 67.910156 253.605469 71.941406 C 251.714844 73.40625 249.148438 75.183594 246.175781 77.242188 C 243.152344 79.332031 239.601562 81.792969 235.832031 84.574219 C 239.734375 85.210938 243.457031 86.15625 247.007812 87.386719 L 247.136719 87.421875 C 247.234375 87.449219 247.328125 87.492188 247.414062 87.539062 C 252.835938 89.460938 257.855469 92.0625 262.441406 95.382812 C 277.871094 106.554688 285.980469 123.597656 290.191406 139.761719 C 304.851562 120.078125 311.921875 103.472656 315.015625 94.511719 C 316.523438 90.140625 316.527344 84.261719 316.527344 79.535156 C 316.53125 74.5 316.585938 72.027344 317.808594 70.933594 C 318.25 70.539062 318.8125 70.363281 319.402344 70.425781 C 320.296875 70.523438 321.074219 70.898438 321.667969 71.511719 C 322.550781 68.90625 323.675781 65.683594 324.5 63.695312 C 325.175781 62.050781 326.171875 61.097656 327.453125 60.859375 C 328.566406 60.652344 329.578125 61.078125 330.289062 61.527344 C 331.105469 61.03125 332.269531 60.753906 333.675781 61.359375 C 335.230469 62.035156 335.882812 63.21875 336.035156 64.339844 C 336.832031 64.445312 337.726562 64.753906 338.359375 65.542969 C 339.25 66.648438 339.347656 68.316406 338.65625 70.636719 Z M 325.621094 100.652344 C 327.675781 95.292969 334.292969 75.722656 336.035156 69.859375 C 336.632812 67.839844 336.273438 67.3125 336.230469 67.257812 C 336.179688 67.195312 336.023438 67.085938 335.589844 67.042969 C 334.519531 70.425781 332.578125 75.726562 332.488281 75.972656 C 332.285156 76.527344 331.761719 76.871094 331.203125 76.871094 C 331.046875 76.871094 330.886719 76.84375 330.730469 76.785156 C 330.023438 76.527344 329.660156 75.738281 329.917969 75.03125 C 329.941406 74.964844 332.34375 68.421875 333.265625 65.292969 C 333.269531 65.28125 333.277344 65.269531 333.28125 65.253906 C 333.285156 65.242188 333.285156 65.230469 333.289062 65.222656 C 333.480469 64.617188 333.246094 64.15625 332.585938 63.867188 C 332.238281 63.71875 331.984375 63.742188 331.792969 63.828125 C 331.890625 65.625 330.953125 68.175781 329.625 71.753906 C 329.296875 72.636719 328.949219 73.578125 328.59375 74.566406 C 328.394531 75.125 327.867188 75.472656 327.304688 75.472656 C 327.152344 75.472656 326.996094 75.445312 326.84375 75.390625 C 326.132812 75.136719 325.761719 74.355469 326.019531 73.644531 C 326.375 72.644531 326.730469 71.695312 327.0625 70.800781 C 328.050781 68.140625 329.15625 65.160156 329.085938 64.023438 C 328.753906 63.761719 328.273438 63.484375 327.949219 63.550781 C 327.65625 63.605469 327.3125 64.050781 327.027344 64.738281 C 325.675781 68 323.402344 74.945312 322.96875 76.285156 C 322.996094 77.640625 323.484375 78.714844 324.0625 79.941406 C 324.890625 81.695312 325.828125 83.6875 325.226562 86.609375 C 325.09375 87.253906 324.527344 87.703125 323.890625 87.703125 C 323.796875 87.703125 323.707031 87.691406 323.613281 87.675781 C 322.875 87.523438 322.398438 86.800781 322.546875 86.0625 C 322.964844 84.027344 322.328125 82.671875 321.585938 81.105469 C 320.9375 79.722656 320.203125 78.160156 320.21875 76.097656 C 320.21875 76.058594 320.226562 76.023438 320.230469 75.988281 C 320.230469 75.976562 320.226562 75.960938 320.226562 75.949219 C 320.230469 75.929688 320.421875 73.910156 319.542969 73.304688 C 319.265625 74.433594 319.265625 77.230469 319.261719 79.535156 C 319.261719 84.464844 319.261719 90.597656 317.601562 95.402344 C 314.359375 104.792969 306.832031 122.425781 291.03125 143.191406 C 290.664062 143.667969 290.304688 144.144531 289.929688 144.628906 C 289.578125 145.082031 289.214844 145.542969 288.855469 146.003906 C 286.871094 148.519531 284.777344 151.074219 282.546875 153.667969 C 282.46875 153.757812 282.375 153.832031 282.28125 153.898438 C 281.78125 154.242188 281.097656 154.226562 280.617188 153.8125 C 280.046875 153.320312 279.980469 152.457031 280.472656 151.882812 C 283.195312 148.71875 285.722656 145.605469 288.074219 142.558594 C 284.15625 126.273438 276.316406 108.804688 260.835938 97.597656 C 256.425781 94.40625 251.601562 91.890625 246.371094 90.050781 C 239.582031 88.253906 235.019531 89.949219 234.875 90.003906 C 232.199219 91.214844 229.363281 92.585938 226.082031 94.511719 C 225.433594 94.894531 224.859375 95.246094 224.304688 95.589844 C 224.308594 95.628906 224.316406 95.671875 224.339844 95.734375 C 224.457031 96.039062 225.023438 97.023438 227.710938 98.355469 C 228.292969 98.585938 228.71875 98.78125 229.003906 98.921875 C 233.890625 100.9375 238.601562 104.375 241.894531 109.171875 C 242.320312 109.792969 242.164062 110.644531 241.539062 111.070312 C 241.304688 111.234375 241.035156 111.308594 240.765625 111.308594 C 240.332031 111.308594 239.902344 111.101562 239.636719 110.714844 C 236.660156 106.378906 232.578125 103.417969 228.425781 101.644531 C 228.347656 101.625 228.269531 101.605469 228.195312 101.574219 C 227.976562 101.484375 227.769531 101.390625 227.5625 101.300781 C 223.605469 99.769531 219.652344 99.304688 216.582031 99.773438 C 216.480469 99.789062 216.378906 99.800781 216.277344 99.820312 C 214.816406 100.390625 213.070312 100.976562 210.902344 101.609375 C 199.660156 105.226562 187.5625 104.199219 186.558594 104.101562 C 183.496094 103.960938 180.203125 103.394531 176.945312 102.65625 C 176.910156 102.652344 176.871094 102.648438 176.835938 102.640625 C 175.148438 102.207031 173.644531 102.421875 172.25 103.308594 C 169.609375 104.984375 167.507812 109.007812 166.488281 114.355469 C 166.363281 115.011719 165.789062 115.464844 165.144531 115.464844 C 165.0625 115.464844 164.976562 115.457031 164.886719 115.441406 C 164.148438 115.300781 163.660156 114.585938 163.800781 113.84375 C 164.007812 112.761719 164.320312 111.417969 164.777344 109.988281 C 164.902344 109.199219 165.695312 104.507812 167.1875 101.707031 C 167.265625 101.566406 167.257812 101.5 167.214844 101.398438 C 166.847656 100.496094 164.558594 99.363281 163.027344 98.878906 C 160.683594 98.222656 158.695312 97.730469 157.339844 97.613281 C 153.269531 97.230469 138.71875 103.835938 133.460938 106.40625 C 133.269531 106.5 133.0625 106.546875 132.863281 106.546875 C 132.40625 106.546875 131.960938 106.316406 131.703125 105.910156 C 131.332031 105.320312 131.464844 104.542969 132.011719 104.109375 C 133.332031 103.058594 140.070312 97.5625 144.492188 93.949219 C 143.113281 93.992188 141.554688 93.925781 139.953125 93.613281 C 130.308594 91.726562 124.464844 94.304688 124.410156 94.332031 C 124.292969 94.382812 124.171875 94.414062 124.050781 94.433594 C 112.195312 99.507812 103.765625 107.714844 98.886719 118.996094 C 96.625 124.222656 93.417969 132.675781 91.039062 143.070312 C 91.019531 143.144531 91.003906 143.21875 90.988281 143.289062 C 90.886719 143.746094 90.78125 144.203125 90.679688 144.664062 C 90.660156 144.761719 90.640625 144.859375 90.621094 144.957031 C 90.523438 145.402344 90.429688 145.84375 90.339844 146.292969 C 90.316406 146.40625 90.292969 146.515625 90.273438 146.628906 C 89.398438 150.976562 88.695312 155.617188 88.269531 160.464844 C 88.265625 160.5 88.261719 160.53125 88.261719 160.5625 C 88.210938 161.132812 88.164062 161.703125 88.125 162.273438 C 88.121094 162.320312 88.117188 162.363281 88.113281 162.40625 C 88.074219 162.96875 88.039062 163.53125 88.003906 164.101562 C 88 164.15625 88 164.210938 87.996094 164.269531 C 86.417969 192.886719 95.226562 227.800781 136.667969 253.132812 L 138.230469 254.089844 C 142.765625 256.871094 147.234375 259.605469 152.324219 261.882812 C 152.332031 261.886719 152.335938 261.890625 152.339844 261.890625 C 152.75 262.074219 153.160156 262.257812 153.578125 262.433594 C 153.585938 262.4375 153.597656 262.441406 153.609375 262.449219 C 154.015625 262.617188 154.425781 262.785156 154.839844 262.949219 C 154.855469 262.957031 154.867188 262.960938 154.882812 262.964844 C 159.199219 264.683594 164.011719 266.050781 169.683594 266.851562 C 169.707031 266.855469 169.730469 266.859375 169.753906 266.863281 C 170.21875 266.925781 170.675781 266.996094 171.152344 267.050781 C 171.183594 267.054688 171.210938 267.058594 171.242188 267.0625 C 171.703125 267.117188 172.183594 267.164062 172.65625 267.210938 C 172.6875 267.214844 172.714844 267.21875 172.746094 267.21875 C 176.363281 267.578125 180.320312 267.71875 184.703125 267.585938 C 196.351562 266.625 200.621094 264.914062 204.382812 262.101562 C 208.917969 258.714844 213.789062 250.3125 213.835938 250.226562 C 213.867188 250.171875 213.90625 250.125 213.945312 250.074219 C 213.960938 250.054688 213.976562 250.027344 213.996094 250.003906 C 214.054688 249.9375 214.121094 249.875 214.191406 249.824219 C 214.214844 249.804688 214.246094 249.789062 214.269531 249.773438 C 214.316406 249.742188 214.363281 249.710938 214.414062 249.683594 C 214.449219 249.664062 214.488281 249.65625 214.527344 249.640625 C 214.570312 249.625 214.613281 249.605469 214.65625 249.589844 C 214.695312 249.582031 214.738281 249.578125 214.78125 249.570312 C 214.824219 249.5625 214.867188 249.550781 214.914062 249.546875 C 214.957031 249.542969 215 249.546875 215.042969 249.546875 C 215.085938 249.546875 215.128906 249.546875 215.175781 249.550781 C 215.21875 249.554688 215.257812 249.566406 215.300781 249.574219 C 215.34375 249.585938 215.390625 249.589844 215.4375 249.605469 C 215.472656 249.617188 215.511719 249.636719 215.546875 249.652344 C 215.589844 249.671875 215.636719 249.6875 215.679688 249.710938 C 215.683594 249.710938 215.683594 249.714844 215.6875 249.714844 C 215.691406 249.71875 215.695312 249.71875 215.699219 249.71875 C 215.726562 249.738281 215.75 249.757812 215.777344 249.777344 C 215.824219 249.808594 215.875 249.839844 215.914062 249.875 C 215.941406 249.898438 215.964844 249.925781 215.992188 249.953125 C 216.027344 249.992188 216.066406 250.027344 216.097656 250.066406 C 216.121094 250.097656 216.140625 250.132812 216.164062 250.164062 C 216.1875 250.207031 216.21875 250.246094 216.238281 250.285156 C 216.257812 250.324219 216.269531 250.359375 216.285156 250.398438 C 216.300781 250.441406 216.320312 250.484375 216.335938 250.527344 C 216.34375 250.566406 216.351562 250.609375 216.359375 250.648438 C 216.367188 250.695312 216.378906 250.738281 216.382812 250.785156 C 216.386719 250.824219 216.382812 250.867188 216.382812 250.910156 C 216.382812 250.953125 216.386719 251 216.378906 251.046875 C 216.375 251.089844 216.367188 251.132812 216.355469 251.175781 C 216.347656 251.21875 216.339844 251.261719 216.328125 251.304688 C 216.328125 251.308594 216.328125 251.308594 216.328125 251.308594 C 216.3125 251.351562 216.292969 251.394531 216.277344 251.433594 C 216.261719 251.46875 216.253906 251.503906 216.234375 251.539062 C 216.203125 251.597656 213.515625 256.757812 212.265625 259.3125 C 211.957031 259.960938 211.640625 260.652344 211.316406 261.359375 C 210.894531 262.316406 210.382812 263.496094 209.929688 264.546875 C 209.691406 265.109375 209.46875 265.628906 209.285156 266.058594 C 209.167969 266.332031 209.066406 266.566406 208.988281 266.753906 C 208.878906 267.023438 208.769531 267.296875 208.660156 267.574219 C 204.808594 277.242188 201.484375 289.082031 204.339844 296.476562 C 209.792969 310.597656 235.1875 318.363281 235.441406 318.4375 C 235.835938 318.554688 236.152344 318.84375 236.308594 319.222656 C 236.46875 319.597656 236.449219 320.027344 236.257812 320.386719 C 236.015625 320.84375 230.714844 331.078125 237.695312 336.835938 L 250.355469 313.105469 C 243.855469 310.378906 220.75 300.167969 218.507812 291.828125 C 216.25 283.425781 223.105469 270.457031 228.042969 262.585938 C 228.457031 261.921875 228.859375 261.296875 229.242188 260.710938 C 229.710938 259.996094 230.144531 259.347656 230.539062 258.769531 C 231.34375 257.589844 231.976562 256.707031 232.328125 256.226562 C 232.472656 256.027344 232.574219 255.890625 232.617188 255.832031 C 233.070312 255.230469 233.925781 255.105469 234.53125 255.558594 C 234.972656 255.886719 235.152344 256.429688 235.046875 256.933594 C 260.375 245.960938 278.804688 226.566406 287.019531 202.59375 C 287.015625 202.460938 287.027344 202.328125 287.070312 202.191406 C 293.527344 180.523438 288.671875 165.597656 288.621094 165.449219 C 288.574219 165.308594 288.558594 165.164062 288.558594 165.019531 C 288.558594 164.984375 288.566406 164.949219 288.566406 164.910156 C 288.578125 164.785156 288.605469 164.664062 288.648438 164.542969 C 288.660156 164.507812 288.667969 164.472656 288.683594 164.4375 C 288.738281 164.324219 288.808594 164.21875 288.890625 164.121094 C 288.902344 164.109375 288.90625 164.09375 288.917969 164.082031 L 289.125 163.859375 L 291.183594 161.65625 L 291.285156 161.546875 C 291.628906 161.15625 292.003906 160.730469 292.417969 160.242188 C 292.796875 159.796875 293.207031 159.300781 293.636719 158.773438 C 300.46875 150.433594 313.679688 131.824219 325.621094 100.652344 Z M 180.828125 338.785156 L 193.488281 315.050781 C 186.988281 312.328125 163.882812 302.113281 161.640625 293.773438 C 160.050781 287.855469 162.984375 279.671875 166.582031 272.597656 C 165.980469 270.214844 161.957031 268.667969 157.324219 266.886719 C 156.433594 266.546875 155.523438 266.191406 154.609375 265.824219 C 154.332031 265.71875 154.054688 265.613281 153.785156 265.503906 C 149.007812 276.785156 144.515625 290.769531 147.472656 298.425781 C 152.925781 312.546875 178.320312 320.308594 178.578125 320.386719 C 178.96875 320.503906 179.285156 320.789062 179.445312 321.167969 C 179.601562 321.546875 179.582031 321.972656 179.390625 322.335938 C 179.152344 322.789062 173.851562 333.027344 180.828125 338.785156 Z M 39.234375 83.863281 C 41.785156 89.425781 51.09375 107.867188 53.882812 112.882812 C 64.527344 132.035156 74.953125 145.75 83.109375 154.984375 C 85.011719 153.851562 86.925781 147.046875 87.132812 142.894531 C 72.992188 127.546875 65.007812 114.214844 61.082031 106.554688 C 58.765625 102.03125 57.898438 95.960938 57.203125 91.082031 C 56.875 88.796875 56.480469 86.03125 56.046875 84.949219 C 55.261719 85.671875 55.734375 87.648438 55.742188 87.667969 C 55.746094 87.683594 55.742188 87.695312 55.746094 87.707031 C 55.753906 87.742188 55.765625 87.773438 55.769531 87.808594 C 56.078125 89.847656 55.570312 91.5 55.121094 92.960938 C 54.609375 94.617188 54.167969 96.050781 54.867188 98.003906 C 55.121094 98.714844 54.753906 99.496094 54.039062 99.75 C 53.886719 99.804688 53.734375 99.828125 53.582031 99.828125 C 53.019531 99.828125 52.492188 99.480469 52.292969 98.921875 C 51.289062 96.113281 51.933594 94.011719 52.507812 92.15625 C 52.902344 90.867188 53.242188 89.742188 53.085938 88.398438 C 52.488281 87.183594 49.234375 80.578125 47.429688 77.523438 C 47.050781 76.882812 46.648438 76.492188 46.347656 76.476562 C 46.339844 76.476562 46.335938 76.476562 46.324219 76.476562 C 46.007812 76.476562 45.589844 76.796875 45.300781 77.09375 C 45.371094 78.210938 46.886719 81.019531 48.253906 83.539062 C 48.707031 84.375 49.1875 85.261719 49.683594 86.195312 C 50.035156 86.863281 49.78125 87.691406 49.113281 88.042969 C 48.910156 88.152344 48.691406 88.203125 48.472656 88.203125 C 47.984375 88.203125 47.507812 87.9375 47.265625 87.472656 C 46.773438 86.546875 46.296875 85.671875 45.847656 84.839844 C 44.023438 81.480469 42.734375 79.082031 42.582031 77.289062 C 42.382812 77.234375 42.128906 77.246094 41.800781 77.445312 C 40.917969 77.988281 41.191406 78.683594 41.296875 78.882812 C 41.300781 78.894531 41.304688 78.90625 41.308594 78.914062 C 41.316406 78.929688 41.324219 78.9375 41.332031 78.953125 C 42.6875 81.917969 45.984375 88.058594 46.015625 88.121094 C 46.375 88.785156 46.125 89.613281 45.460938 89.972656 C 45.253906 90.082031 45.03125 90.132812 44.8125 90.132812 C 44.328125 90.132812 43.855469 89.875 43.609375 89.414062 C 43.484375 89.183594 40.8125 84.207031 39.277344 81.011719 C 38.851562 81.113281 38.714844 81.246094 38.671875 81.3125 C 38.636719 81.371094 38.355469 81.945312 39.234375 83.863281 Z M 128.933594 81.785156 C 130.46875 84.023438 132.152344 86.472656 134.722656 88.164062 C 134.726562 88.164062 134.726562 88.164062 134.726562 88.167969 C 135.28125 88.53125 135.871094 88.859375 136.515625 89.144531 C 136.527344 89.148438 136.539062 89.15625 136.554688 89.164062 C 137.078125 89.390625 137.636719 89.589844 138.226562 89.753906 C 138.535156 89.839844 138.84375 89.914062 139.148438 89.984375 C 139.1875 89.992188 139.226562 90.003906 139.269531 90.011719 C 140.5 90.292969 141.699219 90.457031 142.820312 90.550781 C 143.109375 90.496094 143.714844 90.367188 144.550781 90.171875 C 145.046875 90.054688 145.621094 89.910156 146.25 89.746094 C 146.769531 89.609375 147.324219 89.457031 147.902344 89.285156 C 148.578125 89.085938 149.285156 88.867188 150 88.625 C 150.722656 88.378906 151.453125 88.117188 152.167969 87.828125 C 152.980469 87.5 153.785156 87.234375 154.574219 87.011719 C 155.085938 86.867188 155.59375 86.738281 156.09375 86.632812 C 157.863281 86.183594 159.9375 85.964844 162.367188 86.148438 C 165.425781 86.316406 167.644531 87.015625 168.445312 87.304688 C 168.625 87.367188 168.734375 87.414062 168.765625 87.425781 C 169.316406 87.652344 169.636719 88.203125 169.601562 88.773438 C 169.59375 88.898438 169.574219 89.027344 169.53125 89.152344 C 169.285156 89.835938 168.542969 90.214844 167.84375 89.996094 C 165.992188 89.433594 164.320312 89.09375 162.808594 88.933594 C 161.085938 88.792969 159.015625 88.828125 156.761719 89.289062 C 153.675781 90.070312 151.652344 91.667969 150.160156 92.851562 C 149.816406 93.128906 145.917969 96.316406 141.972656 99.535156 C 147.464844 97.214844 153.828125 94.867188 157.085938 94.867188 C 157.261719 94.867188 157.425781 94.875 157.582031 94.890625 C 159.136719 95.027344 161.269531 95.550781 163.75 96.242188 C 163.757812 96.242188 163.765625 96.242188 163.773438 96.246094 L 175.246094 99.441406 C 179.125 100.414062 183.121094 101.210938 186.71875 101.375 C 186.742188 101.375 186.765625 101.375 186.789062 101.378906 C 186.949219 101.394531 198.539062 102.441406 209.304688 99.222656 C 211.03125 98.707031 212.734375 98.074219 214.367188 97.316406 C 216.726562 96.222656 218.941406 94.859375 220.851562 93.148438 C 221.683594 92.402344 222.523438 91.671875 223.367188 90.953125 C 225.171875 89.40625 226.984375 87.921875 228.78125 86.507812 C 229.3125 86.089844 229.84375 85.675781 230.371094 85.269531 C 230.902344 84.859375 231.433594 84.453125 231.957031 84.054688 C 231.960938 84.054688 231.964844 84.050781 231.96875 84.046875 C 236.59375 80.546875 240.984375 77.507812 244.621094 74.992188 C 247.558594 72.960938 250.097656 71.203125 251.929688 69.78125 C 258.757812 64.484375 262.9375 59.476562 263.699219 55.683594 L 263.929688 54.484375 C 264.085938 53.6875 264.21875 53.03125 264.371094 52.476562 C 263.585938 53.105469 262.839844 54.066406 262.253906 55.507812 C 259.484375 62.363281 252.058594 69.703125 242.875 74.652344 C 239.675781 76.378906 235.039062 79.273438 230.132812 82.335938 C 229.402344 82.792969 228.671875 83.246094 227.941406 83.703125 C 227.25 84.132812 226.566406 84.558594 225.878906 84.984375 C 225.164062 85.425781 224.453125 85.867188 223.746094 86.300781 C 216.789062 90.574219 210.441406 94.230469 207.347656 94.851562 C 207.242188 94.871094 207.121094 94.890625 207 94.90625 C 205.953125 95.046875 204.324219 95.023438 202.820312 94.949219 C 202.238281 94.921875 201.683594 94.886719 201.179688 94.851562 C 200.785156 94.824219 200.425781 94.792969 200.125 94.769531 C 199.695312 94.734375 199.386719 94.707031 199.265625 94.695312 C 199.265625 94.695312 199.261719 94.691406 199.261719 94.691406 C 199.257812 94.691406 199.25 94.691406 199.246094 94.691406 C 198.867188 94.648438 198.386719 94.609375 197.875 94.566406 C 197.277344 94.519531 196.632812 94.476562 196.039062 94.4375 C 194.878906 94.363281 193.921875 94.3125 193.902344 94.3125 C 193.164062 94.273438 192.589844 93.652344 192.609375 92.914062 C 192.628906 92.175781 193.230469 91.582031 193.972656 91.578125 C 194.105469 91.578125 194.257812 91.570312 194.402344 91.566406 C 194.859375 91.550781 195.351562 91.511719 195.863281 91.453125 C 196.339844 91.394531 196.820312 91.320312 197.28125 91.222656 C 198.351562 90.996094 199.292969 90.65625 199.765625 90.195312 C 199.984375 89.777344 200.203125 89.304688 200.414062 88.785156 C 200.417969 88.777344 200.417969 88.773438 200.421875 88.765625 C 200.609375 88.308594 200.789062 87.808594 200.949219 87.277344 C 200.953125 87.273438 200.953125 87.273438 200.953125 87.269531 C 201.09375 86.804688 201.226562 86.320312 201.335938 85.804688 C 201.335938 85.800781 201.335938 85.800781 201.335938 85.796875 C 201.449219 85.25 201.546875 84.679688 201.609375 84.082031 C 202.261719 77.957031 205.460938 72.480469 211.980469 66.328125 C 214.929688 63.539062 217.097656 61.867188 219.109375 60.464844 C 217.207031 61.414062 215.25 62.605469 213.5 64.078125 C 210.980469 66.203125 208.371094 68.886719 205.613281 71.726562 C 202.652344 74.777344 199.613281 77.894531 196.558594 80.425781 C 194.691406 82.660156 193.386719 85.628906 192.601562 87.804688 C 192.386719 88.394531 192.21875 88.914062 192.078125 89.355469 C 191.824219 90.171875 191.695312 90.699219 191.691406 90.714844 C 191.671875 90.78125 191.636719 90.835938 191.613281 90.894531 C 191.402344 91.414062 190.914062 91.761719 190.359375 91.761719 C 190.277344 91.761719 190.195312 91.753906 190.109375 91.738281 C 189.894531 91.695312 189.699219 91.601562 189.535156 91.476562 C 189.160156 91.1875 188.9375 90.71875 189.003906 90.21875 C 189.003906 90.214844 189.003906 90.210938 189.007812 90.203125 C 189.074219 89.6875 189.144531 89.195312 189.214844 88.726562 C 189.726562 85.386719 190.339844 83.230469 190.886719 81.542969 C 190.890625 81.53125 190.898438 81.527344 190.898438 81.515625 C 190.902344 81.507812 190.902344 81.5 190.90625 81.488281 C 191.097656 80.96875 195.195312 69.914062 197.96875 63.519531 C 195.992188 63.40625 194.414062 62.785156 193.265625 61.644531 C 192.519531 60.90625 192.074219 60.054688 191.800781 59.246094 C 188.203125 62.863281 180.601562 70.917969 178.453125 76.5 C 178.453125 76.503906 178.449219 76.511719 178.445312 76.515625 C 178.445312 76.519531 178.445312 76.523438 178.445312 76.527344 L 178.050781 77.476562 C 177.191406 79.539062 176.234375 81.84375 175.042969 86.5625 C 174.9375 86.984375 174.828125 87.421875 174.71875 87.886719 C 174.632812 88.242188 174.546875 88.613281 174.460938 88.996094 C 174.441406 89.082031 174.394531 89.152344 174.359375 89.230469 C 174.144531 89.722656 173.671875 90.058594 173.128906 90.058594 C 173.0625 90.058594 172.996094 90.050781 172.929688 90.042969 C 172.347656 89.957031 171.90625 89.515625 171.792969 88.964844 C 171.769531 88.847656 171.753906 88.726562 171.761719 88.597656 C 171.765625 88.558594 171.789062 88.214844 171.863281 87.589844 C 171.90625 87.234375 171.960938 86.785156 172.039062 86.246094 C 172.257812 84.773438 172.628906 82.628906 173.269531 79.863281 C 173.742188 77.808594 173.808594 76.039062 173.804688 75.15625 C 171.625 73.519531 168.308594 71.082031 164.917969 68.8125 C 164.007812 68.199219 163.011719 67.640625 161.960938 67.046875 C 159.148438 65.457031 156.074219 63.726562 154.171875 60.683594 C 153.925781 63.292969 154.160156 66.546875 156.097656 69.042969 C 160.324219 74.480469 170.511719 83.820312 170.613281 83.914062 C 171.078125 84.339844 171.191406 85.027344 170.886719 85.578125 C 170.761719 85.804688 170.570312 85.972656 170.355469 86.09375 C 170.050781 86.265625 169.691406 86.335938 169.332031 86.242188 C 169.3125 86.234375 168.707031 86.078125 167.617188 85.886719 C 165.109375 85.453125 160 84.847656 153.308594 85.527344 C 142.453125 86.625 137.230469 83.796875 132.308594 78.882812 C 131.285156 77.855469 129.894531 76.589844 128.285156 75.117188 C 120.414062 67.929688 113.90625 61.601562 113.980469 57 C 114.046875 52.804688 114.0625 48.347656 114.050781 44.488281 C 112.933594 49.851562 112.09375 56.128906 113.152344 59.996094 C 114.175781 63.734375 117.085938 67.125 120.769531 71.414062 C 123.042969 74.0625 125.617188 77.066406 128.140625 80.640625 C 128.402344 81.007812 128.664062 81.394531 128.933594 81.785156 Z M 194.378906 58.328125 C 194.535156 58.808594 194.785156 59.304688 195.207031 59.71875 C 195.785156 60.285156 196.609375 60.628906 197.664062 60.753906 C 196.964844 59.933594 195.917969 59.007812 194.378906 58.328125 Z M 218.300781 86.398438 C 214.03125 86.605469 209.59375 87.109375 204.992188 87.898438 C 204 89.890625 203.621094 91.285156 203.535156 92.242188 C 204.925781 92.296875 206.199219 92.296875 206.8125 92.171875 C 208.933594 91.746094 213.296875 89.378906 218.300781 86.398438 Z M 200.667969 213.460938 C 198.152344 214.964844 193.609375 215.832031 189.578125 214.183594 C 188.875 213.894531 188.078125 214.230469 187.792969 214.929688 C 187.507812 215.628906 187.839844 216.425781 188.539062 216.710938 C 190.4375 217.488281 192.402344 217.816406 194.289062 217.816406 C 197.308594 217.816406 200.113281 216.976562 202.074219 215.804688 C 202.722656 215.417969 202.933594 214.578125 202.542969 213.929688 C 202.15625 213.28125 201.316406 213.070312 200.667969 213.460938 Z M 180.046875 83.675781 C 180.160156 83.703125 180.273438 83.71875 180.382812 83.71875 C 180.992188 83.71875 181.550781 83.304688 181.707031 82.683594 C 183.796875 74.402344 189.398438 67.589844 189.457031 67.519531 C 189.9375 66.9375 189.859375 66.078125 189.277344 65.597656 C 188.695312 65.113281 187.835938 65.191406 187.351562 65.773438 C 187.105469 66.066406 181.300781 73.117188 179.054688 82.015625 C 178.871094 82.746094 179.316406 83.492188 180.046875 83.675781 Z M 177.976562 90.816406 C 178.082031 90.84375 178.1875 90.855469 178.292969 90.855469 C 178.875 90.855469 179.390625 90.476562 179.578125 89.910156 C 179.589844 89.871094 179.613281 89.839844 179.625 89.800781 L 179.914062 88.570312 L 180.226562 87.246094 L 180.242188 87.191406 C 180.414062 86.460938 179.960938 85.722656 179.222656 85.550781 C 178.492188 85.378906 177.753906 85.832031 177.578125 86.566406 L 177.507812 86.863281 L 177.195312 88.191406 L 176.960938 89.171875 C 176.933594 89.296875 176.925781 89.421875 176.933594 89.542969 C 176.957031 90.140625 177.367188 90.671875 177.976562 90.816406 Z M 247.90625 119.105469 C 247.488281 118.472656 246.640625 118.304688 246.011719 118.71875 C 245.382812 119.136719 245.207031 119.984375 245.625 120.613281 C 246.546875 122.003906 247.550781 123.949219 247.5625 123.96875 C 247.804688 124.4375 248.285156 124.707031 248.777344 124.707031 C 248.988281 124.707031 249.203125 124.660156 249.40625 124.554688 C 250.074219 124.210938 250.339844 123.386719 249.992188 122.714844 C 249.949219 122.628906 248.910156 120.621094 247.90625 119.105469 Z M 127.378906 111.269531 C 127.316406 111.335938 125.800781 112.984375 124.734375 115.960938 C 124.480469 116.671875 124.847656 117.457031 125.5625 117.710938 C 125.714844 117.761719 125.867188 117.789062 126.019531 117.789062 C 126.582031 117.789062 127.109375 117.441406 127.308594 116.882812 C 128.167969 114.476562 129.363281 113.152344 129.382812 113.128906 C 129.894531 112.578125 129.863281 111.714844 129.3125 111.203125 C 128.761719 110.6875 127.894531 110.71875 127.378906 111.269531 Z M 220.582031 167.128906 C 220.6875 167.875 220.167969 168.566406 219.417969 168.671875 C 218.988281 168.734375 218.578125 168.761719 218.191406 168.761719 C 217.703125 168.761719 217.25 168.71875 216.824219 168.636719 C 216.859375 174.167969 216.230469 189.71875 208.671875 199.136719 C 208.660156 199.152344 208.648438 199.164062 208.640625 199.179688 C 208.332031 199.5625 208.007812 199.933594 207.675781 200.292969 C 207.621094 200.351562 207.570312 200.414062 207.515625 200.472656 C 207.167969 200.839844 206.8125 201.203125 206.4375 201.546875 C 206.289062 201.6875 206.136719 201.824219 205.984375 201.957031 C 205.78125 202.132812 205.578125 202.300781 205.375 202.464844 C 205.144531 202.648438 204.90625 202.828125 204.667969 203 C 204.507812 203.117188 204.347656 203.238281 204.183594 203.351562 C 203.78125 203.625 203.363281 203.882812 202.933594 204.128906 C 202.808594 204.199219 202.675781 204.265625 202.550781 204.332031 C 202.199219 204.519531 201.84375 204.699219 201.480469 204.867188 C 201.335938 204.929688 201.195312 204.996094 201.050781 205.058594 C 200.5625 205.265625 200.0625 205.464844 199.542969 205.636719 C 198.855469 205.859375 198.171875 206.050781 197.492188 206.21875 C 195.34375 206.742188 193.21875 206.980469 191.132812 206.980469 C 171.867188 206.980469 155.867188 186.785156 155.101562 185.804688 C 154.730469 185.328125 154.714844 184.660156 155.070312 184.167969 C 155.425781 183.675781 156.0625 183.472656 156.632812 183.675781 C 156.726562 183.707031 161.464844 185.285156 168.976562 184.519531 C 168.992188 184.515625 169.003906 184.515625 169.019531 184.515625 C 169.507812 184.464844 170.011719 184.402344 170.523438 184.328125 C 170.582031 184.320312 170.636719 184.316406 170.695312 184.308594 C 171.25 184.226562 171.816406 184.136719 172.398438 184.027344 C 172.472656 184.015625 172.542969 184.003906 172.613281 183.988281 C 172.890625 183.9375 173.167969 183.878906 173.449219 183.820312 C 173.578125 183.792969 173.710938 183.765625 173.847656 183.734375 C 174.089844 183.683594 174.332031 183.628906 174.582031 183.570312 C 174.757812 183.527344 174.933594 183.484375 175.113281 183.4375 C 175.335938 183.382812 175.554688 183.328125 175.777344 183.269531 C 175.992188 183.210938 176.210938 183.152344 176.429688 183.089844 C 176.625 183.035156 176.824219 182.980469 177.023438 182.921875 C 177.285156 182.84375 177.554688 182.761719 177.824219 182.675781 C 177.984375 182.625 178.144531 182.578125 178.308594 182.523438 C 178.742188 182.382812 179.183594 182.234375 179.628906 182.078125 C 191.265625 177.929688 207.921875 169.179688 213.128906 166.390625 C 212.488281 165.589844 212.101562 164.726562 211.933594 164.050781 C 211.75 163.320312 212.191406 162.578125 212.925781 162.394531 C 213.652344 162.214844 214.394531 162.648438 214.582031 163.375 C 214.671875 163.703125 215.53125 166.460938 219.035156 165.96875 C 219.777344 165.859375 220.472656 166.378906 220.582031 167.128906 Z M 204.4375 199.660156 C 206.921875 197.414062 208.960938 194.289062 210.527344 190.289062 C 210.519531 190.289062 210.515625 190.289062 210.507812 190.289062 C 200.359375 190.878906 189.132812 193.863281 187.847656 203.984375 C 187.847656 203.988281 187.847656 203.996094 187.84375 204.003906 C 189.394531 204.207031 190.925781 204.261719 192.433594 204.1875 C 192.523438 204.183594 192.617188 204.179688 192.707031 204.171875 C 193.089844 204.148438 193.46875 204.117188 193.847656 204.078125 C 193.996094 204.0625 194.140625 204.042969 194.285156 204.023438 C 194.621094 203.980469 194.957031 203.929688 195.292969 203.875 C 195.457031 203.847656 195.621094 203.820312 195.78125 203.789062 C 196.125 203.722656 196.460938 203.644531 196.800781 203.566406 C 196.949219 203.527344 197.097656 203.496094 197.246094 203.460938 C 197.730469 203.332031 198.210938 203.195312 198.6875 203.039062 C 199.082031 202.910156 199.46875 202.757812 199.851562 202.597656 C 199.953125 202.554688 200.058594 202.507812 200.160156 202.460938 C 200.449219 202.335938 200.734375 202.195312 201.015625 202.050781 C 201.105469 202.003906 201.191406 201.960938 201.277344 201.914062 C 202.007812 201.519531 202.707031 201.0625 203.378906 200.546875 C 203.398438 200.535156 203.414062 200.519531 203.433594 200.503906 C 203.75 200.257812 204.058594 200 204.363281 199.730469 C 204.386719 199.707031 204.414062 199.683594 204.4375 199.660156 Z M 178.511719 185.324219 C 178.34375 185.378906 178.175781 185.425781 178.007812 185.476562 C 177.445312 185.644531 176.890625 185.804688 176.34375 185.945312 C 176.25 185.972656 176.15625 185.996094 176.066406 186.019531 C 171.882812 187.089844 168.195312 187.449219 165.214844 187.476562 C 165.21875 187.476562 165.222656 187.480469 165.226562 187.484375 C 166.765625 188.832031 169.058594 190.417969 171.941406 191.167969 C 181.210938 193.582031 202.242188 182.910156 213.769531 175.371094 C 213.773438 175.367188 213.78125 175.363281 213.785156 175.359375 C 214.019531 172.753906 214.078125 170.515625 214.082031 168.984375 C 214.082031 168.984375 214.078125 168.984375 214.078125 168.984375 C 213.1875 169.460938 212.027344 170.074219 210.660156 170.789062 C 203.394531 174.582031 190.273438 181.183594 180.546875 184.652344 C 179.855469 184.898438 179.179688 185.117188 178.511719 185.324219 Z M 178.511719 185.324219 " fill-opacity="1" fill-rule="nonzero"/></g></svg>